<svg version="1.1" id="Layer_1" xmlns="http://www.w3.org/2000/svg" xmlns:xlink="http://www.w3.org/1999/xlink" x="0px" y="0px"
	 width="100%" viewBox="0 0 792 622" enable-background="new 0 0 792 622" xml:space="preserve">
<path fill="#000000" opacity="1.000000" stroke="none" 
	d="
M630.145569,622.201782 
	C630.145569,622.201782 630.123474,622.610168 630.061768,622.805054 
	C479.642578,623.000000 329.285187,623.000000 178.463882,623.000000 
	C178.000000,623.000000 177.873901,622.611023 178.335190,622.323120 
	C328.084839,622.029907 477.373199,622.024292 626.661560,622.026978 
	C627.822876,622.027039 628.984253,622.140991 630.145569,622.201782 
z"/>
<path fill="#000000" opacity="1.000000" stroke="none" 
	d="
M630.497437,622.131775 
	C628.984253,622.140991 627.822876,622.027039 626.661560,622.026978 
	C477.373199,622.024292 328.084839,622.029907 178.324829,622.118896 
	C171.446548,619.978333 169.021591,616.599426 169.004288,609.477356 
	C168.961365,591.811157 168.990143,574.144775 168.990097,556.478455 
	C168.990097,554.857605 168.990082,553.236755 168.990082,551.180725 
	C164.085083,551.180725 159.627060,551.180786 155.169022,551.180725 
	C137.169373,551.180481 119.169716,551.195129 101.170090,551.173645 
	C92.519081,551.163330 88.830727,547.409424 88.823547,538.631470 
	C88.807739,519.319275 88.818642,500.007050 88.818642,480.010101 
	C86.833763,480.010101 85.078300,480.010132 83.322845,480.010132 
	C62.489922,480.010040 41.656982,480.022217 20.824074,480.003784 
	C12.470427,479.996399 8.164890,475.797913 8.163843,467.478577 
	C8.145240,319.648132 8.145104,171.817703 8.162263,23.987280 
	C8.163353,14.592834 12.625038,10.476391 22.678057,10.474973 
	C100.843193,10.463953 179.008331,10.469718 257.173462,10.469979 
	C325.672119,10.470207 394.170776,10.469323 462.669434,10.470695 
	C474.519165,10.470931 478.178680,14.121167 478.179932,25.932014 
	C478.181702,42.765018 478.180481,59.598019 478.180634,76.431023 
	C478.180664,78.051628 478.180695,79.672226 478.180695,81.819260 
	C480.448547,81.819260 482.231079,81.819244 484.013611,81.819267 
	C504.179901,81.819504 524.346191,81.802834 544.512451,81.827248 
	C554.378235,81.839195 558.163391,85.597252 558.174438,95.370857 
	C558.195923,114.349548 558.180725,133.328278 558.180725,152.990082 
	C560.167969,152.990082 561.923706,152.990097 563.679443,152.990097 
	C584.179016,152.990082 604.678650,152.977310 625.178223,152.995483 
	C635.158997,153.004333 639.008728,156.912064 639.009277,166.953949 
	C639.011353,203.953232 639.010132,240.952499 639.009094,277.951782 
	C639.009094,279.118347 639.096130,280.295288 638.973816,281.449493 
	C638.606140,284.919250 636.646912,287.032379 633.150696,287.064941 
	C629.460999,287.099304 627.178955,285.083069 627.032532,281.278015 
	C626.885254,277.450317 626.990784,273.612823 626.990662,269.779602 
	C626.989807,236.613586 626.990112,203.447586 626.990112,170.281570 
	C626.990112,168.658997 626.990173,167.036407 626.990173,165.215271 
	C603.989319,165.215271 581.390015,165.215271 558.180725,165.215271 
	C558.180725,171.201035 558.181885,177.139450 558.180481,183.077850 
	C558.178711,190.744339 558.189514,198.410889 558.166016,206.077316 
	C558.153809,210.082977 556.125549,212.474365 552.109375,212.443542 
	C548.072083,212.412582 546.161011,209.905563 546.156372,205.955658 
	C546.140320,192.483780 546.150208,179.011887 546.150208,165.275848 
	C424.453278,165.275848 303.032379,165.275848 181.310608,165.275848 
	C181.310608,265.953674 181.310608,366.686951 181.310608,467.705322 
	C275.997070,467.705322 370.741394,467.705322 466.150665,467.705322 
	C466.150665,466.046051 466.150665,464.298004 466.150665,462.549927 
	C466.150635,425.383972 466.149139,388.218048 466.155762,351.052094 
	C466.156036,349.554565 465.635956,347.536011 466.395660,346.666107 
	C468.068176,344.751007 470.350616,342.294952 472.487000,342.191864 
	C474.257050,342.106476 476.463409,344.857758 477.906403,346.780182 
	C478.643768,347.762543 478.174744,349.684021 478.175049,351.181030 
	C478.182892,389.513611 478.185944,427.846191 478.176636,466.178772 
	C478.174164,476.393372 474.548340,480.009369 464.374359,480.009460 
	C371.876190,480.010254 279.377991,480.009888 186.879807,480.009857 
	C185.081741,480.009857 183.283691,480.009827 181.250000,480.009827 
	C181.250000,499.755859 181.250000,519.170654 181.250000,538.868591 
	C302.705261,538.868591 424.109009,538.868591 546.150452,538.868591 
	C546.150452,537.166321 546.150513,535.405945 546.150513,533.645508 
	C546.150635,496.646240 546.150513,459.646973 546.151489,422.647705 
	C546.151550,421.314453 546.030457,419.965149 546.192017,418.651123 
	C546.614990,415.211670 548.611694,413.077911 552.091614,413.097870 
	C555.482971,413.117340 557.692017,415.009735 558.083313,418.549744 
	C558.229126,419.868927 558.177734,421.212433 558.177856,422.544830 
	C558.181458,460.710754 558.185547,498.876678 558.176331,537.042603 
	C558.173767,547.624268 554.629272,551.179932 544.142761,551.180054 
	C425.311737,551.181213 306.480743,551.180725 187.649719,551.180725 
	C185.668808,551.180725 183.687897,551.180786 181.359314,551.180786 
	C181.359314,570.959961 181.359314,590.511963 181.359314,610.268066 
	C329.693695,610.268066 477.972900,610.268066 626.990173,610.268066 
	C626.990173,608.597290 626.990112,606.861328 626.990112,605.125427 
	C626.990051,568.626160 627.006348,532.126831 626.966003,495.627594 
	C626.961792,491.799957 627.590820,488.531067 632.094482,487.875854 
	C636.401306,487.249207 638.956909,489.801941 638.989197,494.829559 
	C639.056641,505.328918 639.009888,515.829041 639.009888,526.328796 
	C639.009949,554.161621 638.988953,581.994385 639.026855,609.827209 
	C639.034973,615.802063 636.725952,620.088989 630.497437,622.131775 
M411.499939,81.822838 
	C429.606506,81.822838 447.713074,81.822838 465.923370,81.822838 
	C465.923370,61.816753 465.923370,42.386463 465.923370,22.828888 
	C317.332275,22.828888 168.971985,22.828888 20.486332,22.828888 
	C20.486332,171.331635 20.486332,319.530273 20.486332,467.686096 
	C43.371113,467.686096 65.945122,467.686096 88.822838,467.686096 
	C88.822838,465.578156 88.822838,463.773468 88.822838,461.968781 
	C88.822731,417.311218 88.822578,372.653625 88.822525,327.996063 
	C88.822441,250.178574 88.819786,172.361069 88.825867,94.543571 
	C88.826576,85.498978 92.461418,81.891472 101.562767,81.823051 
	C102.395882,81.816788 103.229088,81.822624 104.062248,81.822624 
	C206.208130,81.822708 308.354004,81.822769 411.499939,81.822838 
M375.500000,152.990417 
	C432.268097,152.990417 489.036194,152.990417 545.938110,152.990417 
	C545.938110,133.110046 545.938110,113.702087 545.938110,94.132774 
	C523.341919,94.132774 500.959320,94.132774 478.180573,94.132774 
	C478.180573,106.539848 478.182190,118.666611 478.179962,130.793365 
	C478.178619,138.019394 476.517059,140.862564 472.250763,140.956909 
	C467.960938,141.051773 466.152954,138.094986 466.152466,130.977814 
	C466.151611,118.708366 466.152161,106.438927 466.152161,94.183456 
	C344.088989,94.183456 222.570236,94.183456 101.110565,94.183456 
	C101.110565,218.899887 101.110565,343.281799 101.110565,467.776062 
	C123.784317,467.776062 146.195908,467.776062 168.990417,467.776062 
	C168.990417,465.776733 168.990433,463.985596 168.990433,462.194458 
	C168.990387,364.388611 168.990387,266.582794 168.990280,168.776947 
	C168.990280,156.291077 172.242386,152.990692 184.553391,152.990601 
	C247.868927,152.990143 311.184479,152.990402 375.500000,152.990417 
M114.507004,480.010651 
	C110.056435,480.010651 105.605858,480.010651 101.068878,480.010651 
	C101.068878,499.908630 101.068878,519.312561 101.068878,538.797302 
	C123.798248,538.797302 146.307541,538.797302 168.989334,538.797302 
	C168.989334,528.798706 168.989334,519.151733 168.989334,509.504730 
	C168.989334,499.745300 168.989334,489.985870 168.989334,480.010651 
	C150.771652,480.010651 133.137878,480.010651 114.507004,480.010651 
z"/>
<path fill="#000000" opacity="1.000000" stroke="none" 
	d="
M344.000305,313.479370 
	C355.833191,313.479218 367.166107,313.461517 378.498962,313.485229 
	C385.489746,313.499878 386.496307,314.545410 386.515564,321.705383 
	C386.534821,328.871735 386.563477,336.038513 386.507538,343.204468 
	C386.458221,349.512787 385.108490,350.837921 378.888641,350.840088 
	C351.889709,350.849487 324.890778,350.838287 297.891846,350.847260 
	C289.799377,350.849945 289.007263,351.655762 289.006073,359.687469 
	C289.004517,370.020386 289.003021,380.353333 289.006042,390.686249 
	C289.008331,398.409180 290.073792,399.471039 298.033630,399.474609 
	C326.032532,399.487183 354.031433,399.479309 382.030334,399.479340 
	C384.863556,399.479340 387.699219,399.554443 390.529388,399.461823 
	C394.233337,399.340637 396.347137,401.193420 396.413635,404.733063 
	C396.582581,413.728760 396.588776,422.731720 396.424561,431.727478 
	C396.354218,435.580139 393.894287,437.224243 390.102875,437.190247 
	C383.103699,437.127502 376.103607,437.174408 369.103882,437.174408 
	C329.438782,437.174530 289.773651,437.177460 250.108551,437.171509 
	C242.277008,437.170319 241.157791,436.047333 241.157578,428.269714 
	C241.155853,364.272217 241.155914,300.274750 241.157501,236.277252 
	C241.157700,228.423523 241.764053,227.826675 249.734146,227.826401 
	C294.899048,227.824860 340.063934,227.824097 385.228821,227.827850 
	C392.710846,227.828476 393.507690,228.630905 393.518585,236.138016 
	C393.528503,242.971069 393.529144,249.804153 393.517700,256.637207 
	C393.506348,263.434540 392.456757,264.513916 385.753723,264.516113 
	C356.754852,264.525604 327.756012,264.518341 298.757141,264.521973 
	C289.860046,264.523071 289.006592,265.377228 289.005737,274.209900 
	C289.004730,284.542816 288.999207,294.875763 289.007690,305.208679 
	C289.013611,312.405640 290.112762,313.476288 297.503143,313.479156 
	C312.835510,313.485107 328.167908,313.479950 344.000305,313.479370 
z"/>
<path fill="#000000" opacity="1.000000" stroke="none" 
	d="
M225.525726,381.629028 
	C224.744598,406.840759 206.480530,425.918457 187.236191,432.888672 
	C187.236191,396.233459 187.236191,359.663483 187.236191,323.103149 
	C208.583221,326.626587 227.737152,355.628937 225.525726,381.629028 
z"/>
<path fill="#000000" opacity="1.000000" stroke="none" 
	d="
M756.843994,350.981110 
	C759.792969,351.286652 762.313171,351.384247 764.730225,351.934906 
	C773.597046,353.954834 777.180481,362.351379 773.168640,370.535522 
	C772.288208,372.331482 772.129456,375.717346 773.233215,377.030212 
	C777.419067,382.009216 777.928284,387.331055 775.619202,392.900848 
	C773.216736,398.695648 768.045227,401.320618 762.128235,401.746918 
	C755.829285,402.200684 749.471802,401.920258 743.141663,401.832581 
	C739.309143,401.779480 737.418457,399.748383 737.433167,395.824554 
	C737.481384,382.995056 737.453796,370.165283 737.450195,357.335602 
	C737.448975,353.045624 739.456421,350.867767 743.871948,350.961884 
	C748.035522,351.050629 752.202515,350.981018 756.843994,350.981110 
M757.330505,379.540253 
	C749.279907,379.614441 748.122314,380.294708 747.857910,385.106781 
	C747.463074,392.293762 748.861755,393.572174 756.999084,393.461823 
	C762.703247,393.384491 765.710327,391.281677 765.754028,386.896118 
	C765.802612,382.014740 762.859131,379.824799 757.330505,379.540253 
M756.853149,359.255829 
	C753.922546,359.255829 750.991943,359.255829 748.117310,359.255829 
	C747.246094,370.702972 748.290100,372.177856 756.379517,371.849243 
	C760.259216,371.691650 763.335571,370.492249 763.913147,366.174133 
	C764.531738,361.549164 761.491211,360.099060 756.853149,359.255829 
z"/>
<path fill="#000000" opacity="1.000000" stroke="none" 
	d="
M186.992493,242.093292 
	C186.992462,239.152512 186.992462,236.695526 186.992462,234.238556 
	C187.369690,233.893143 187.746918,233.547745 188.124146,233.202332 
	C193.265366,237.447296 198.860062,241.255554 203.454712,246.026840 
	C213.451859,256.408234 218.448898,269.390503 220.947784,283.384644 
	C221.800140,288.157928 219.951385,290.401093 215.093292,290.478699 
	C205.957794,290.624695 196.818298,290.520782 186.992538,290.520782 
	C186.992538,274.359222 186.992538,258.468170 186.992493,242.093292 
z"/>
<path fill="#000000" opacity="1.000000" stroke="none" 
	d="
M702.244507,394.789734 
	C707.636230,393.001526 709.479614,389.280731 709.465332,384.291199 
	C709.439697,375.296906 709.489380,366.302307 709.443848,357.308167 
	C709.425659,353.728302 710.244934,351.008759 714.579346,350.971710 
	C718.837830,350.935333 719.900269,353.447571 719.876770,357.134399 
	C719.816284,366.628113 719.941345,376.123413 719.830444,385.616211 
	C719.739380,393.410645 715.749695,399.020721 708.450867,401.481812 
	C701.788330,403.728302 695.040100,403.740875 688.411194,401.173126 
	C682.065857,398.715210 678.245178,394.025848 678.003113,387.270538 
	C677.633545,376.957184 677.829712,366.622742 677.831177,356.297272 
	C677.831726,352.920624 679.464966,351.000702 682.995911,350.987305 
	C686.881531,350.972565 688.121216,353.065094 688.060425,356.733215 
	C687.919556,365.225586 687.997314,373.721954 688.020386,382.216583 
	C688.047729,392.265411 691.708191,395.608643 702.244507,394.789734 
z"/>
<path fill="#000000" opacity="1.000000" stroke="none" 
	d="
M571.423584,396.591553 
	C563.687622,387.767242 562.445984,377.787537 565.441711,367.318512 
	C569.901611,351.732697 589.166931,344.919159 602.814697,353.773346 
	C607.848816,357.039307 610.496216,361.755615 610.685547,367.984680 
	C607.396362,367.984680 604.109680,367.984680 600.845093,367.984680 
	C597.730042,360.040710 594.158264,357.391357 587.496521,358.039612 
	C581.408325,358.632019 577.101440,362.926422 575.943115,370.502502 
	C575.352112,374.368622 575.359802,378.472961 575.944824,382.341370 
	C577.122864,390.131165 581.781250,394.821228 587.789978,395.134338 
	C594.120178,395.464233 597.948059,392.216309 600.617676,384.139832 
	C603.696472,384.139832 606.826355,384.139832 610.562683,384.139832 
	C610.003723,391.426422 607.138306,397.059143 600.572266,400.113922 
	C590.385315,404.853363 580.587830,404.310486 571.423584,396.591553 
z"/>
<path fill="#000000" opacity="1.000000" stroke="none" 
	d="
M637.180786,361.104126 
	C637.181030,369.741150 637.140015,377.894318 637.196106,386.046844 
	C637.231995,391.263489 638.848999,392.984344 643.953613,393.117676 
	C648.775635,393.243622 653.650330,392.764954 658.404785,393.346100 
	C660.235718,393.569885 662.841309,395.735443 663.250977,397.455292 
	C663.942871,400.359863 661.489746,401.824371 658.584595,401.834686 
	C649.932678,401.865448 641.279480,401.926208 632.629028,401.810028 
	C628.482605,401.754364 626.925964,399.276459 626.955322,395.254791 
	C627.048889,382.443756 627.032227,369.631439 626.962891,356.820099 
	C626.943665,353.258270 628.112549,351.031250 632.020203,350.985962 
	C635.871704,350.941345 637.405457,352.944641 637.192627,356.627441 
	C637.115967,357.954102 637.180664,359.288879 637.180786,361.104126 
z"/>
<path fill="#000000" opacity="1.000000" stroke="none" 
	d="
M82.174011,290.000061 
	C82.174019,302.388947 82.174019,314.277832 82.174019,326.574463 
	C62.244019,311.486023 57.850132,267.946991 82.174011,245.275040 
	C82.174011,260.566284 82.174011,275.033173 82.174011,290.000061 
z"/>
<path fill="#000000" opacity="1.000000" stroke="none" 
	d="
M58.840904,387.141174 
	C58.338531,384.461975 57.658360,382.192047 57.563976,379.897949 
	C57.420948,376.421539 59.155533,374.109924 62.828697,374.039307 
	C69.105225,373.918671 75.385750,374.006012 81.914734,374.006012 
	C81.914734,390.478088 81.914734,406.621277 81.914734,423.572021 
	C69.642303,413.928253 62.541714,401.861816 58.840904,387.141174 
z"/>
<path fill="#000000" opacity="1.000000" stroke="none" 
	d="
M130.779816,223.840652 
	C141.861252,222.257721 152.366486,223.139679 162.985016,225.234665 
	C162.985016,238.885193 162.985016,252.303055 162.985016,266.498657 
	C155.236710,260.400299 146.825745,258.272064 137.568100,258.947784 
	C126.326447,259.768341 118.356590,265.333527 116.037674,274.318207 
	C113.211288,285.269104 116.606163,295.506836 126.883728,300.687683 
	C136.414719,305.492188 146.933029,308.345734 157.040787,311.991241 
	C158.884552,312.656219 160.844589,312.998840 162.930237,313.536469 
	C162.930237,329.120361 162.930237,344.555084 162.930237,359.617157 
	C144.071274,353.824982 125.139717,348.010498 106.157303,342.180389 
	C106.157303,332.839386 106.157295,324.190582 106.157295,315.541779 
	C106.157310,288.566620 106.252800,261.590729 106.051247,234.617065 
	C106.022049,230.709671 107.234314,228.847046 110.898575,228.093903 
	C117.391273,226.759430 123.855370,225.285767 130.779816,223.840652 
z"/>
<path fill="#000000" opacity="1.000000" stroke="none" 
	d="
M106.800331,435.864258 
	C106.411469,417.602936 106.411469,399.535095 106.411469,381.524078 
	C123.151314,405.945740 134.216919,410.047882 163.174179,402.324982 
	C163.174179,413.701874 163.178848,424.998291 163.167007,436.294678 
	C163.165802,437.434296 163.064758,438.573792 162.988388,440.164154 
	C144.011230,442.199158 125.435844,441.636139 106.800331,435.864258 
z"/>
</svg>